<svg version="1.1" xmlns="http://www.w3.org/2000/svg" xmlns:xlink="http://www.w3.org/1999/xlink" x="0px" y="0px" viewBox="-358 260 242.7 42" xml:space="preserve"><defs><clipPath id="logo-stencil"><path d="M-336.9,268.8c-0.8-0.3-1.6-0.6-2.4-0.8c-0.2,0-0.3-0.2-0.2-0.4l3.2-7.6h-2.5l-13.5,31.8&#10;                    c-1.1-1.2-1.9-2.5-2.5-4c-1.3-3.2-1.2-6.8,0.2-10c1.2-2.8,3.3-5.1,5.9-6.4l1.3-3.1c-4,1.3-7.5,4.3-9.3,8.6c-2.6,6-1,12.8,3.3,17.1&#10;                    c0.1,0.1,0.1,0.3,0,0.4l-3.2,7.6h2.5l13.5-31.9c0.9,0.2,1.8,0.5,2.7,0.8c3.1,1.4,5.5,3.9,6.8,7.2c1.3,3.2,1.2,6.8-0.2,10&#10;                    c-2,4.8-6.6,7.9-11.7,7.9c-1.1,0-2.2-0.2-3.3-0.5l-0.9,2.2c1.4,0.4,2.8,0.6,4.2,0.6c5.8,0,11.4-3.5,13.9-9.3&#10;                    C-325.7,281.3-329.3,272.2-336.9,268.8z"/><!-- internet.org --><path d="M-262.7,279c-2.4,0-4.6,2-4.6,5.1c0,3.3,2.3,5.2,4.8,5.2c2.3,0,3.8-1.4,4.3-3.1l-1.9-0.6&#10;                        c-0.3,1-1,1.7-2.4,1.7c-1.4,0-2.5-1.1-2.6-2.5h6.9c0,0,0.1-0.4,0.1-0.7C-258.1,281-259.8,279-262.7,279z M-265,283.1&#10;                        c0.1-1,0.9-2.1,2.3-2.1c1.6,0,2.3,1,2.3,2.1H-265z"/><path d="M-247.4,285.9c-0.9,0-1.6,0.7-1.6,1.6c0,0.9,0.7,1.6,1.6,1.6c0.9,0,1.6-0.7,1.6-1.6&#10;                        C-245.8,286.6-246.5,285.9-247.4,285.9z"/><path d="M-272.8,279.1c-1.1,0-2.2,0.5-2.8,1.6v-1.3h-2.2v9.7h2.3v-5.6c0-1.3,0.7-2.3,2-2.3c1.4,0,1.9,1,1.9,2.1v5.7&#10;                        h2.3v-6.1C-269.3,280.8-270.4,279.1-272.8,279.1z"/><path d="M-253,285.9v-4.5h2v-2h-2v-3h-2v1.5c0,0.9-0.4,1.5-1.5,1.5h-0.5v2h1.8v4.9c0,1.8,1.1,2.9,2.8,2.9&#10;                        c0.8,0,1.2-0.2,1.4-0.2V287c-0.1,0-0.5,0.1-0.8,0.1C-252.7,287.1-253,286.7-253,285.9z"/><rect x="-319.1" y="279.3" width="2.2" height="9.7"/><path d="M-318,274.4c-0.8,0-1.5,0.7-1.5,1.5s0.7,1.5,1.5,1.5c0.8,0,1.5-0.7,1.5-1.5S-317.2,274.4-318,274.4z"/><path d="M-299.9,285.9v-4.5h2v-2h-2v-3h-2v1.5c0,0.9-0.4,1.5-1.5,1.5h-0.5v2h1.8v4.9c0,1.8,1.1,2.9,2.8,2.9&#10;                        c0.8,0,1.2-0.2,1.4-0.2V287c-0.1,0-0.5,0.1-0.8,0.1C-299.6,287.1-299.9,286.7-299.9,285.9z"/><path d="M-309,279.1c-1.1,0-2.2,0.5-2.8,1.6v-1.3h-2.2v9.7h2.3v-5.6c0-1.3,0.7-2.3,2-2.3c1.4,0,1.9,1,1.9,2.1v5.7h2.3&#10;                        v-6.1C-305.5,280.8-306.6,279.1-309,279.1z"/><path d="M-283.1,280.9v-1.6h-2.2v9.7h2.3v-4.6c0-1.8,0.8-2.8,2.6-2.8c0.2,0,0.5,0,0.7,0.1v-2.3&#10;                        c-0.1,0-0.3-0.1-0.6-0.1C-281.6,279.2-282.7,279.8-283.1,280.9z"/><path d="M-291.9,279c-2.4,0-4.6,2-4.6,5.1c0,3.3,2.3,5.2,4.8,5.2c2.3,0,3.8-1.4,4.3-3.1l-1.9-0.6&#10;                        c-0.3,1-1,1.7-2.4,1.7c-1.4,0-2.5-1.1-2.6-2.5h6.9c0,0,0.1-0.4,0.1-0.7C-287.2,281-288.9,279-291.9,279z M-294.2,283.1&#10;                        c0.1-1,0.9-2.1,2.3-2.1c1.6,0,2.3,1,2.3,2.1H-294.2z"/><path d="M-218.5,280.6c-0.4-0.8-1.3-1.4-2.8-1.4c-2.6,0-4.4,2.1-4.4,4.7c0,2.7,1.8,4.7,4.4,4.7c1.4,0,2.3-0.7,2.7-1.4&#10;                        v1c0,2-0.9,2.9-2.7,2.9c-1.3,0-2.2-0.9-2.4-2.1l-2.1,0.6c0.3,1.9,2,3.5,4.5,3.5c3.6,0,4.9-2.4,4.9-5v-8.8h-2.2V280.6z&#10;                         M-220.9,286.6c-1.5,0-2.5-1.1-2.5-2.7c0-1.7,1-2.7,2.5-2.7c1.4,0,2.4,1.1,2.4,2.7C-218.5,285.5-219.5,286.6-220.9,286.6z"/><path d="M-229.8,280.9v-1.6h-2.2v9.7h2.3v-4.6c0-1.8,0.8-2.8,2.6-2.8c0.2,0,0.5,0,0.7,0.1v-2.3&#10;                        c-0.1,0-0.3-0.1-0.6-0.1C-228.3,279.2-229.3,279.8-229.8,280.9z"/><path d="M-239.2,279c-2.8,0-4.9,2.2-4.9,5.1c0,3,2.1,5.2,4.9,5.2c2.8,0,4.9-2.2,4.9-5.2&#10;                        C-234.3,281.2-236.4,279-239.2,279z M-239.2,287.3c-1.4,0-2.6-1.1-2.6-3.1c0-2,1.3-3,2.6-3c1.4,0,2.6,1,2.6,3&#10;                        C-236.5,286.2-237.8,287.3-239.2,287.3z"/><!-- /internet.org --><!-- by facebook --><path d="M-139.6,279.5c-3,0-4.5,1.9-4.5,4.6v0.5c0,2.7,1.5,4.6,4.5,4.6c3,0,4.5-1.9,4.5-4.6v-0.5&#10;                        C-135,281.4-136.5,279.5-139.6,279.5z M-137.8,284.8c0,1.2-0.5,2.2-1.8,2.2c-1.3,0-1.8-1-1.8-2.2v-0.9c0-1.2,0.5-2.2,1.8-2.2&#10;                        c1.3,0,1.8,1,1.8,2.2V284.8z"/><path d="M-166.9,281.7c0.7,0,1.4,0.2,1.8,0.4l0.6-2c-0.6-0.4-1.6-0.6-2.6-0.6c-3.2,0-4.7,1.8-4.7,4.6v0.4&#10;                        c0,2.9,1.5,4.6,4.7,4.6c1.1,0,2.1-0.2,2.6-0.6l-0.6-2c-0.4,0.2-1.1,0.4-1.8,0.4c-1.5,0-2.1-0.9-2.1-2.4v-0.5&#10;                        C-169.1,282.6-168.4,281.7-166.9,281.7z"/><path d="M-159.4,279.5c-3,0-4.5,1.7-4.5,4.4v0.8c0,2.7,1.3,4.5,4.8,4.5c1.3,0,2.8-0.3,3.5-0.7l-0.5-1.9&#10;                        c-0.8,0.4-1.9,0.6-2.9,0.6c-1.5,0-2.1-0.6-2.1-1.8h5.8v-1.5C-155.4,281.3-156.6,279.5-159.4,279.5z M-157.8,283.5h-3.3&#10;                        c0-1.3,0.5-2.1,1.7-2.1c1.2,0,1.6,0.8,1.6,1.8V283.5z"/><path d="M-148.9,279.5c-1.3,0-2.2,0.7-2.6,1.5v-6.2l-2.8,0.3v14h2.6v-1.4c0.4,0.9,1.3,1.6,2.7,1.6&#10;                        c2.5,0,3.8-2,3.8-4.6v-0.6C-145.1,281.5-146.4,279.5-148.9,279.5z M-147.9,284.7c0,1.3-0.5,2.3-1.8,2.3c-1.1,0-1.7-0.8-1.7-2.2v-1&#10;                        c0-1.3,0.6-2.2,1.7-2.2c1.3,0,1.8,1,1.8,2.3V284.7z"/><path d="M-129.4,279.5c-3,0-4.5,1.9-4.5,4.6v0.5c0,2.7,1.5,4.6,4.5,4.6c3,0,4.5-1.9,4.5-4.6v-0.5&#10;                        C-124.9,281.4-126.4,279.5-129.4,279.5z M-127.6,284.8c0,1.2-0.5,2.2-1.8,2.2c-1.3,0-1.8-1-1.8-2.2v-0.9c0-1.2,0.5-2.2,1.8-2.2&#10;                        c1.3,0,1.8,1,1.8,2.2V284.8z"/><polygon points="-118.3,284.3 -115.4,279.7 -118.4,279.7 -121.1,284.1 -121.1,274.8 -123.9,275 -123.9,289&#10;                        -121.1,289 -121.1,284.4 -118.3,289 -115.3,289         "/><path d="M-175.3,281.1c-0.4-0.9-1.2-1.6-2.6-1.6c-2.5,0-3.7,2-3.7,4.6v0.6c0,2.6,1.2,4.6,3.7,4.6&#10;                        c1.4,0,2.2-0.7,2.6-1.6v1.4h2.5v-9.3h-2.5V281.1z M-175.4,284.8c0,1.3-0.6,2.2-1.7,2.2c-1.3,0-1.8-0.9-1.8-2.3V284&#10;                        c0-1.4,0.5-2.3,1.8-2.3c1.1,0,1.7,0.8,1.7,2.2V284.8z"/><path d="M-202.7,282.6c-0.3-0.4-0.6-0.7-1-0.9c-0.4-0.2-0.9-0.3-1.4-0.3c-0.5,0-1,0.1-1.5,0.4c-0.5,0.2-0.9,0.6-1.1,1&#10;                        v-4.1h-0.8v10.4h0.8v-1.3h0c0.1,0.3,0.3,0.5,0.5,0.7c0.2,0.2,0.4,0.3,0.6,0.5c0.2,0.1,0.5,0.2,0.7,0.3c0.2,0.1,0.5,0.1,0.7,0.1&#10;                        c0.6,0,1.1-0.1,1.5-0.3c0.4-0.2,0.8-0.5,1-0.8c0.3-0.4,0.5-0.8,0.6-1.2c0.1-0.5,0.2-1,0.2-1.5c0-0.5-0.1-1-0.2-1.5&#10;                        C-202.3,283.4-202.5,283-202.7,282.6z M-203,286.9c-0.1,0.4-0.3,0.7-0.5,0.9c-0.2,0.3-0.5,0.4-0.8,0.6c-0.3,0.1-0.6,0.2-1,0.2&#10;                        c-0.4,0-0.8-0.1-1.1-0.2c-0.3-0.2-0.6-0.4-0.8-0.7c-0.2-0.3-0.4-0.6-0.5-1c-0.1-0.4-0.2-0.8-0.2-1.3c0-0.4,0.1-0.8,0.2-1.2&#10;                        c0.1-0.4,0.3-0.7,0.5-1c0.2-0.3,0.5-0.5,0.8-0.7c0.3-0.2,0.7-0.3,1-0.3c0.4,0,0.8,0.1,1.1,0.3c0.3,0.2,0.6,0.4,0.8,0.7&#10;                        c0.2,0.3,0.4,0.7,0.5,1.1c0.1,0.4,0.1,0.8,0.1,1.3C-202.8,286.1-202.9,286.5-203,286.9z"/><path d="M-197.6,288.1l-2.3-6.4h-0.9l2.8,7.5c-0.1,0.2-0.2,0.4-0.2,0.6c-0.1,0.2-0.1,0.5-0.2,0.7&#10;                        c-0.1,0.2-0.2,0.4-0.4,0.6c-0.2,0.2-0.3,0.2-0.6,0.2c-0.1,0-0.2,0-0.4,0c-0.1,0-0.2,0-0.3-0.1v0.8c0.1,0,0.2,0.1,0.4,0.1&#10;                        c0.1,0,0.3,0,0.4,0c0.3,0,0.5-0.1,0.8-0.2c0.2-0.1,0.4-0.3,0.6-0.6c0.2-0.3,0.3-0.6,0.5-1c0.2-0.4,0.3-0.8,0.5-1.3l2.7-7.4h-0.9&#10;                        L-197.6,288.1z"/><path d="M-186.9,278.3v1.4h-1.9v2.3h1.9v7h2.8v-7h2.1l0.2-2.3h-2.3v-1.4c0-0.9,0.2-1.3,1.1-1.3h1.2v-2.2&#10;                        c-0.4-0.1-1.1-0.1-1.6-0.1C-186,274.7-186.9,276-186.9,278.3z"/><!-- /by facebook --></clipPath></defs><rect x="-358" y="260" width="242.7" height="42" clip-path="url(#logo-stencil)"/></svg>